<svg width="32" height="32" viewBox="0 0 32 32" fill="none" xmlns="http://www.w3.org/2000/svg">
  <!-- Background circle -->
  <circle cx="16" cy="16" r="16" fill="#6366F1" />
  
  <!-- Book icon -->
  <path d="M8 10C8 8.89543 8.89543 8 10 8H22C23.1046 8 24 8.89543 24 10V24C24 25.1046 23.1046 26 22 26H10C8.89543 26 8 25.1046 8 24V10Z" fill="white" />
  
  <!-- Book pages -->
  <path d="M12 8V26" stroke="#6366F1" stroke-width="1.5" />
  
  <!-- Letter 'H' -->
  <path d="M15 13H17V19H15V17H13V19H11V13H13V15H15V13Z" fill="#6366F1" />
  
  <!-- Letter 'L' -->
  <path d="M19 13H21V18H23V20H19V13Z" fill="#6366F1" />
</svg> 